<?xml version="1.0" encoding="utf-8"?>
<!-- Generator: Adobe Illustrator 28.3.0, SVG Export Plug-In . SVG Version: 6.00 Build 0)  -->
<svg version="1.1" id="Livello_1" xmlns="http://www.w3.org/2000/svg" xmlns:xlink="http://www.w3.org/1999/xlink" x="0px" y="0px"
	 viewBox="0 0 1080 1080" style="enable-background:new 0 0 1080 1080;" xml:space="preserve">
<style type="text/css">
	.st0{fill:#1D1D1B;}
</style>
<g>
	<path class="st0" d="M1958.9,404.91h-380.21l27.25-60h252.35C1878.12,381.6,1916.8,404.91,1958.9,404.91z"/>
	<path class="st0" d="M1958.9,344.91v60c-42.1,0-80.78-23.31-100.61-60H1958.9z"/>
</g>
<g>
	<polygon class="st0" points="1909.4,313.04 1854.78,337.86 1764.91,140.03 1671.84,344.91 1605.94,344.91 1764.91,7.5 	"/>
</g>
<g>
	<path class="st0" d="M2073.25,290.56c0,63.05-51.3,114.35-114.35,114.35c-42.1,0-80.78-23.31-100.61-60
		c-1.25-2.29-2.42-4.64-3.51-7.04l54.62-24.83c8.8,19.36,28.23,31.87,49.5,31.87c29.97,0,54.35-24.38,54.35-54.35
		c0-14.03-5.7-27.53-15.63-37.02c-4.28-4.09-9.57-7.29-16.63-10.06c-9.3-3.66-20.19-5.96-31.73-8.4l-4.02-0.85
		c-12.13-2.59-21.98-5.48-31-9.09c-14.98-6-27.37-13.91-37.87-24.17c-19.93-19.5-31.82-49.07-31.82-79.12
		c0-63.05,51.3-114.35,114.35-114.35c44.74,0,85.61,26.32,104.12,67.05l-54.62,24.82c-8.8-19.36-28.23-31.87-49.5-31.87
		c-29.97,0-54.35,24.38-54.35,54.35c0,13.82,5.4,28.04,13.76,36.22c4.75,4.63,10.72,8.36,18.24,11.37
		c5.76,2.31,12.51,4.25,21.22,6.11l3.89,0.83c13.44,2.84,27.33,5.77,41.29,11.26c14.34,5.64,26.15,13,36.11,22.51
		C2060.79,230.92,2073.25,260.22,2073.25,290.56z"/>
</g>
<g>
	<path d="M472.14,688.82H256.54l-45.11,129.59H110.89l210.25-556.6h86.78l210.64,556.6H517.64L472.14,688.82z M283.68,610.84H445
		l-80.66-230.9L283.68,610.84z"/>
	<path d="M874.1,675.06c0-24.47-8.6-43.32-25.8-56.58c-17.2-13.25-48.23-26.63-93.09-40.14c-44.86-13.51-80.54-28.54-107.04-45.11
		c-50.72-31.85-76.07-73.4-76.07-124.62c0-44.85,18.28-81.81,54.86-110.86c36.57-29.05,84.04-43.58,142.4-43.58
		c38.74,0,73.27,7.14,103.6,21.41c30.33,14.28,54.15,34.6,71.49,60.97c17.33,26.38,25.99,55.62,25.99,87.73H874.1
		c0-29.05-9.12-51.8-27.33-68.24c-18.22-16.44-44.28-24.66-78.18-24.66c-31.6,0-56.14,6.76-73.59,20.26
		c-17.46,13.51-26.19,32.37-26.19,56.58c0,20.39,9.43,37.4,28.29,51.03c18.86,13.64,49.95,26.89,93.28,39.76
		c43.32,12.87,78.11,27.52,104.36,43.96c26.25,16.44,45.49,35.3,57.72,56.58c12.23,21.28,18.35,46.2,18.35,74.74
		c0,46.39-17.78,83.28-53.33,110.67c-35.55,27.4-83.78,41.1-144.69,41.1c-40.27,0-77.29-7.45-111.05-22.36
		c-33.77-14.91-60.02-35.49-78.75-61.74c-18.73-26.25-28.1-56.83-28.1-91.75h96.72c0,31.6,10.45,56.07,31.35,73.4
		c20.89,17.33,50.84,25.99,89.84,25.99c33.64,0,58.93-6.82,75.88-20.45C865.62,715.52,874.1,697.49,874.1,675.06z"/>
</g>
<path d="M1078.58,540.12c1.8,252.89-184.53,479.67-432.83,527.33C314.72,1134.83,0.47,878.08,1.08,540.12
	c-1.9-338.8,313.16-597.12,645.04-529.22C894.55,58.53,1081.59,287.15,1078.58,540.12L1078.58,540.12z M1077.82,540.12
	C1078.91,246.44,834.5,2.91,540.85,5.17C248.79,3.48,4.18,248.05,5.92,540.12c-2.85,292.78,242.12,538.61,534.93,536.95
	C835.2,1079.24,1080.01,834.48,1077.82,540.12L1077.82,540.12z"/>
</svg>
