<?xml version="1.0" encoding="UTF-8"?>
<svg id="Livello_1" data-name="Livello 1" xmlns="http://www.w3.org/2000/svg" viewBox="0 0 1080 1080">
  <defs>
    <style>
      .cls-1 {
        fill: #fff;
        stroke-width: 0px;
      }
    </style>
  </defs>
  <g>
    <path class="cls-1" d="M472.14,688.82h-215.61l-45.11,129.59h-100.54l210.25-556.6h86.78l210.64,556.6h-100.92l-45.49-129.59ZM283.68,610.84h161.32l-80.66-230.9-80.66,230.9Z"/>
    <path class="cls-1" d="M874.1,675.06c0-24.47-8.6-43.32-25.8-56.58-17.2-13.25-48.23-26.63-93.09-40.14-44.86-13.51-80.54-28.54-107.04-45.11-50.72-31.85-76.07-73.4-76.07-124.62,0-44.85,18.28-81.81,54.86-110.86,36.57-29.05,84.04-43.58,142.4-43.58,38.74,0,73.27,7.14,103.6,21.41,30.33,14.28,54.15,34.6,71.49,60.97,17.33,26.38,25.99,55.62,25.99,87.73h-96.33c0-29.05-9.12-51.8-27.33-68.24-18.22-16.44-44.28-24.66-78.18-24.66-31.6,0-56.14,6.76-73.59,20.26-17.46,13.51-26.19,32.37-26.19,56.58,0,20.39,9.43,37.4,28.29,51.03,18.86,13.64,49.95,26.89,93.28,39.76,43.32,12.87,78.11,27.52,104.36,43.96,26.25,16.44,45.49,35.3,57.72,56.58,12.23,21.28,18.35,46.2,18.35,74.74,0,46.39-17.78,83.28-53.33,110.67-35.55,27.4-83.79,41.1-144.69,41.1-40.27,0-77.29-7.45-111.05-22.36-33.77-14.91-60.02-35.49-78.75-61.74-18.73-26.25-28.1-56.83-28.1-91.75h96.72c0,31.6,10.45,56.07,31.35,73.4,20.89,17.33,50.84,25.99,89.84,25.99,33.64,0,58.93-6.82,75.88-20.45,16.95-13.63,25.42-31.66,25.42-54.09Z"/>
  </g>
  <path class="cls-1" d="M1078.58,540.12c1.8,252.89-184.53,479.67-432.83,527.33C314.72,1134.83.47,878.08,1.08,540.12-.81,201.32,314.24-57.01,646.13,10.89c248.42,47.64,435.47,276.25,432.46,529.22h0ZM1077.82,540.12C1078.91,246.44,834.5,2.91,540.85,5.17,248.79,3.48,4.18,248.05,5.92,540.12c-2.85,292.78,242.12,538.61,534.93,536.95,294.35,2.17,539.16-242.58,536.97-536.95h0Z"/>
</svg>